<?xml version="1.0" encoding="utf-8"?>
<!-- Generator: Adobe Illustrator 24.0.1, SVG Export Plug-In . SVG Version: 6.00 Build 0)  -->
<svg version="1.1" id="Layer_1" xmlns="http://www.w3.org/2000/svg" xmlns:xlink="http://www.w3.org/1999/xlink" x="0px" y="0px"
	 viewBox="0 0 30 30" style="enable-background:new 0 0 30 30;" xml:space="preserve">
<style type="text/css">
	.st0{fill:#B3B3B3;}
</style>
<g>
	<path class="st0" d="M21,5c2.21,0,4,1.79,4,4s-1.79,4-4,4s-4-1.79-4-4S18.79,5,21,5 M21,1c-4.42,0-8,3.58-8,8s3.58,8,8,8
		s8-3.58,8-8S25.42,1,21,1L21,1z"/>
</g>
<g>
	<path class="st0" d="M3.31,28.69c-0.08,0-0.23-0.02-0.35-0.15l-1.69-1.69c-0.19-0.2-0.19-0.51,0-0.71l12.49-12.49
		c0.13-0.13,0.28-0.15,0.35-0.15c0.08,0,0.23,0.02,0.35,0.15l1.69,1.69c0.13,0.13,0.15,0.28,0.15,0.35c0,0.08-0.02,0.23-0.15,0.35
		L3.66,28.54C3.54,28.67,3.39,28.69,3.31,28.69z"/>
	<path class="st0" d="M14.11,14.71l0.98,0.98L3.31,27.48L2.33,26.5L14.11,14.71 M14.11,12.51c-0.38,0-0.77,0.15-1.06,0.44
		L0.56,25.44c-0.59,0.59-0.59,1.54,0,2.12l1.69,1.69c0.29,0.29,0.68,0.44,1.06,0.44s0.77-0.15,1.06-0.44l12.49-12.49
		c0.59-0.59,0.59-1.54,0-2.12l-1.69-1.69C14.88,12.65,14.5,12.51,14.11,12.51L14.11,12.51z"/>
</g>
</svg>
